<?xml version="1.0" encoding="UTF-8" standalone="no"?>
<!-- Created with Inkscape (http://www.inkscape.org/) -->

<svg
   width="296mm"
   height="73mm"
   viewBox="0 0 296 73"
   version="1.1"
   id="svg1"
   sodipodi:docname="logo3.svg"
   inkscape:version="1.3 (0e150ed6c4, 2023-07-21)"
   xmlns:inkscape="http://www.inkscape.org/namespaces/inkscape"
   xmlns:sodipodi="http://sodipodi.sourceforge.net/DTD/sodipodi-0.dtd"
   xmlns="http://www.w3.org/2000/svg"
   xmlns:svg="http://www.w3.org/2000/svg">
  <sodipodi:namedview
     id="namedview1"
     pagecolor="#ffffff"
     bordercolor="#000000"
     borderopacity="0.25"
     inkscape:showpageshadow="2"
     inkscape:pageopacity="0.0"
     inkscape:pagecheckerboard="0"
     inkscape:deskcolor="#d1d1d1"
     inkscape:document-units="mm"
     inkscape:lockguides="false"
     inkscape:zoom="0.69219276"
     inkscape:cx="584.37479"
     inkscape:cy="306.99541"
     inkscape:window-width="1920"
     inkscape:window-height="991"
     inkscape:window-x="-9"
     inkscape:window-y="-9"
     inkscape:window-maximized="1"
     inkscape:current-layer="layer1" />
  <defs
     id="defs1">
    <rect
       x="75.123581"
       y="167.58337"
       width="914.48517"
       height="262.93253"
       id="rect5" />
    <rect
       x="145.91312"
       y="287.49216"
       width="879.81274"
       height="232.59418"
       id="rect3" />
  </defs>
  <g
     inkscape:label="Camada 1"
     inkscape:groupmode="layer"
     id="layer1">
    <text
       xml:space="preserve"
       transform="scale(0.26458333)"
       id="text3"
       style="white-space:pre;shape-inside:url(#rect3);fill:#000000;fill-opacity:1" />
    <path
       id="text5"
       style="font-size:96px;font-family:'Bauhaus 93';-inkscape-font-specification:'Bauhaus 93, ';white-space:pre;fill:#ffffff"
       d="M 104.60726 190.25121 C 101.01351 190.25121 97.529356 190.98512 94.154359 192.45386 C 90.779362 193.92262 87.966475 195.92287 85.716477 198.45412 C 83.716479 200.73537 82.295221 203.20373 81.451471 205.85998 C 80.638972 208.48498 80.232657 211.85993 80.232657 215.98493 L 80.232657 255.82884 L 99.263745 255.82884 L 99.263745 214.0164 C 99.263745 210.3289 100.74764 208.48525 103.71639 208.48525 C 106.65389 208.48525 108.12339 209.82863 108.12339 212.51613 C 108.12339 215.45362 106.20102 216.92313 102.35727 216.92313 L 102.35727 233.70423 L 105.264 233.75072 C 112.57649 233.75072 118.04482 231.95362 121.66982 228.35987 C 125.63857 224.45363 127.62274 219.36029 127.62274 213.07905 C 127.62274 206.61031 125.40408 201.18853 120.96659 196.81353 C 116.56034 192.43854 111.10725 190.25121 104.60726 190.25121 z M 165.82606 190.25121 C 156.26357 190.25121 148.17028 193.50088 141.54528 200.00088 C 134.95154 206.50087 131.65446 214.43841 131.65446 223.8134 C 131.65446 233.09464 134.93546 241.0161 141.49795 247.5786 C 148.06044 254.14109 155.98275 257.42293 165.26399 257.42293 C 174.60773 257.42293 182.54528 254.15717 189.07652 247.62593 C 195.60776 241.09468 198.87267 233.15714 198.87267 223.8134 C 198.87267 214.62591 195.623 206.73493 189.123 200.14119 C 182.65426 193.54745 174.88856 190.25121 165.82606 190.25121 z M 337.66962 190.25121 C 330.66963 190.25121 324.85762 192.70434 320.23263 197.61058 C 315.63888 202.48558 313.34151 208.65734 313.34151 216.12608 L 313.34151 255.82884 L 332.37344 255.82884 L 332.37344 239.14156 L 338.70079 239.14156 L 338.70079 221.98518 L 332.37344 221.98518 L 332.37344 214.06373 C 332.37344 210.00124 333.8421 207.96966 336.7796 207.96966 C 338.99834 207.96966 340.54488 209.18861 341.41988 211.6261 L 357.0295 200.23501 C 351.84201 193.57877 345.38837 190.25121 337.66962 190.25121 z M 391.2011 190.25121 C 381.63861 190.25121 373.54532 193.50088 366.92032 200.00088 C 360.32658 206.50087 357.0295 214.43841 357.0295 223.8134 C 357.0295 233.09464 360.3105 241.0161 366.87299 247.5786 C 373.43549 254.14109 381.35779 257.42293 390.63903 257.42293 C 399.98277 257.42293 407.92032 254.15717 414.45156 247.62593 C 420.9828 241.09468 424.24771 233.15714 424.24771 223.8134 C 424.24771 214.62591 420.99804 206.73493 414.49804 200.14119 C 408.0293 193.54745 400.2636 190.25121 391.2011 190.25121 z M 527.56042 190.25121 C 517.99793 190.25121 509.90463 193.50088 503.27964 200.00088 C 496.68589 206.50087 493.38882 214.43841 493.38882 223.8134 C 493.38882 233.09464 496.66981 241.0161 503.23231 247.5786 C 509.7948 254.14109 517.7171 257.42293 526.99835 257.42293 C 536.34208 257.42293 544.27963 254.15717 550.81087 247.62593 C 557.34211 241.09468 560.60703 233.15714 560.60703 223.8134 C 560.60703 214.62591 557.35735 206.73493 550.85736 200.14119 C 544.38862 193.54745 536.62291 190.25121 527.56042 190.25121 z M 207.82614 191.84446 L 207.82614 255.82884 L 226.85723 255.82884 L 226.85723 209.04817 L 230.23222 209.04817 C 234.85721 209.04817 237.16982 210.56338 237.16982 213.59463 C 237.16982 217.03213 235.16957 218.75051 231.16957 218.75051 L 229.67014 218.75051 L 229.67014 235.20366 L 238.90422 255.82884 L 258.87267 255.82884 L 247.90418 229.43838 C 253.56042 225.00088 256.38855 219.54779 256.38855 213.07905 C 256.38855 206.73531 254.10726 201.50061 249.54476 197.37561 C 245.45102 193.68811 239.68557 191.84446 232.24808 191.84446 L 207.82614 191.84446 z M 259.48207 191.84446 L 259.48207 210.21965 L 274.06052 210.21965 L 274.06052 255.82884 L 293.0916 255.82884 L 293.0916 210.21965 L 307.62271 210.21965 L 307.62271 191.84446 L 259.48207 191.84446 z M 431.88855 191.84446 L 431.88855 232.90718 C 431.88855 240.09467 433.82617 245.7196 437.70116 249.7821 C 441.57616 253.81334 446.98269 255.82884 453.92019 255.82884 L 458.98224 255.82884 L 458.98224 237.26685 L 457.9984 237.26685 C 455.1859 237.26685 453.29484 236.78181 452.32609 235.81306 C 451.38859 234.81307 450.91964 232.82889 450.91964 229.86014 L 450.91964 191.84446 L 431.88855 191.84446 z M 465.40426 191.84446 L 465.40426 255.82884 L 484.43535 255.82884 L 484.43535 191.84446 L 465.40426 191.84446 z M 165.26399 209.09465 C 169.20149 209.09465 172.52904 210.532 175.24779 213.40699 C 177.99779 216.25074 179.37333 219.71966 179.37333 223.8134 C 179.37333 227.90715 177.99779 231.39131 175.24779 234.2663 C 172.52904 237.11005 169.20149 238.53215 165.26399 238.53215 C 161.38899 238.53215 158.06059 237.09481 155.27935 234.21982 C 152.52935 231.34482 151.15465 227.8759 151.15465 223.8134 C 151.15465 219.75091 152.52935 216.28199 155.27935 213.40699 C 158.02934 210.532 161.35775 209.09465 165.26399 209.09465 z M 390.63903 209.09465 C 394.57653 209.09465 397.90408 210.532 400.62283 213.40699 C 403.37283 216.25074 404.74837 219.71966 404.74837 223.8134 C 404.74837 227.90715 403.37283 231.39131 400.62283 234.2663 C 397.90408 237.11005 394.57653 238.53215 390.63903 238.53215 C 386.76403 238.53215 383.43563 237.09481 380.65439 234.21982 C 377.90439 231.34482 376.52969 227.8759 376.52969 223.8134 C 376.52969 219.75091 377.90439 216.28199 380.65439 213.40699 C 383.40438 210.532 386.73279 209.09465 390.63903 209.09465 z M 526.99835 209.09465 C 530.93584 209.09465 534.2634 210.532 536.98215 213.40699 C 539.73214 216.25074 541.10769 219.71966 541.10769 223.8134 C 541.10769 227.90715 539.73214 231.39131 536.98215 234.2663 C 534.2634 237.11005 530.93584 238.53215 526.99835 238.53215 C 523.12335 238.53215 519.79495 237.09481 517.0137 234.21982 C 514.26371 231.34482 512.889 227.8759 512.889 223.8134 C 512.889 219.75091 514.26371 216.28199 517.0137 213.40699 C 519.7637 210.532 523.0921 209.09465 526.99835 209.09465 z "
       transform="matrix(0.61139256,0,0,0.61139256,-47.701794,-104.2047)" />
  </g>
</svg>
