<?xml version="1.0" encoding="UTF-8"?>
<svg width="296mm" height="73mm" version="1.1" viewBox="0 0 296 73" xmlns="http://www.w3.org/2000/svg">
<text transform="scale(.26458)" fill="#000000" style="shape-inside:url(#rect3);white-space:pre" xml:space="preserve"/>
<path transform="matrix(.61139 0 0 .61139 -47.702 -104.2)" d="m104.61 190.25c-3.5938 0-7.0779 0.73391-10.453 2.2026-3.375 1.4688-6.1879 3.469-8.4379 6.0003-2 2.2812-3.4213 4.7496-4.265 7.4059-0.8125 2.625-1.2188 6-1.2188 10.125v39.844h19.031v-41.812c0-3.6875 1.4839-5.5312 4.4526-5.5312 2.9375 0 4.407 1.3434 4.407 4.0309 0 2.9375-1.9224 4.407-5.7661 4.407v16.781l2.9067 0.04649c7.3125 0 12.781-1.7971 16.406-5.3908 3.9688-3.9062 5.9529-8.9996 5.9529-15.281 0-6.4687-2.2187-11.891-6.6562-16.266-4.4062-4.375-9.8593-6.5623-16.359-6.5623zm61.219 0c-9.5625 0-17.656 3.2497-24.281 9.7497-6.5937 6.5-9.8908 14.438-9.8908 23.813 0 9.2812 3.281 17.203 9.8435 23.765 6.5625 6.5625 14.485 9.8443 23.766 9.8443 9.3437 0 17.281-3.2658 23.813-9.797 6.5312-6.5312 9.7962-14.469 9.7962-23.813 0-9.1875-3.2497-17.078-9.7497-23.672-6.4687-6.5937-14.234-9.89-23.297-9.89zm171.84 0c-7 0-12.812 2.4531-17.437 7.3594-4.5938 4.875-6.8911 11.047-6.8911 18.516v39.703h19.032v-16.687h6.3274v-17.156h-6.3274v-7.9214c0-4.0625 1.4687-6.0941 4.4062-6.0941 2.2187 0 3.7653 1.219 4.6403 3.6564l15.61-11.391c-5.1875-6.6562-11.641-9.9838-19.36-9.9838zm53.531 0c-9.5625 0-17.656 3.2497-24.281 9.7497-6.5937 6.5-9.8908 14.438-9.8908 23.813 0 9.2812 3.281 17.203 9.8435 23.765 6.5625 6.5625 14.485 9.8443 23.766 9.8443 9.3437 0 17.281-3.2658 23.813-9.797 6.5312-6.5312 9.7962-14.469 9.7962-23.813 0-9.1875-3.2497-17.078-9.7497-23.672-6.4687-6.5937-14.234-9.89-23.297-9.89zm136.36 0c-9.5625 0-17.656 3.2497-24.281 9.7497-6.5938 6.5-9.8908 14.438-9.8908 23.813 0 9.2812 3.281 17.203 9.8435 23.765 6.5625 6.5625 14.485 9.8443 23.766 9.8443 9.3437 0 17.281-3.2658 23.813-9.797 6.5312-6.5312 9.7962-14.469 9.7962-23.813 0-9.1875-3.2497-17.078-9.7497-23.672-6.4687-6.5937-14.234-9.89-23.297-9.89zm-319.73 1.5932v63.984h19.031v-46.781h3.375c4.625 0 6.9376 1.5152 6.9376 4.5465 0 3.4375-2.0002 5.1559-6.0002 5.1559h-1.4994v16.453l9.2341 20.625h19.968l-10.968-26.39c5.6562-4.4375 8.4844-9.8906 8.4844-16.359 0-6.3437-2.2813-11.578-6.8438-15.703-4.0937-3.6875-9.8592-5.5312-17.297-5.5312h-24.422zm51.656 0v18.375h14.578v45.609h19.031v-45.609h14.531v-18.375h-48.141zm172.41 0v41.063c0 7.1875 1.9376 12.812 5.8126 16.875 3.875 4.0312 9.2815 6.0467 16.219 6.0467h5.062v-18.562h-0.98384c-2.8125 0-4.7036-0.48504-5.6723-1.4538-0.9375-0.99999-1.4064-2.9842-1.4064-5.9529v-38.016h-19.031zm33.516 0v63.984h19.031v-63.984h-19.031zm-300.14 17.25c3.9375 0 7.265 1.4374 9.9838 4.3123 2.75 2.8438 4.1255 6.3127 4.1255 10.406 0 4.0938-1.3755 7.5779-4.1255 10.453-2.7188 2.8438-6.0463 4.2658-9.9838 4.2658-3.875 0-7.2034-1.4373-9.9846-4.3123-2.75-2.875-4.1247-6.3439-4.1247-10.406 0-4.0625 1.3747-7.5314 4.1247-10.406 2.75-2.875 6.0784-4.3123 9.9846-4.3123zm225.38 0c3.9375 0 7.265 1.4374 9.9838 4.3123 2.75 2.8438 4.1255 6.3127 4.1255 10.406 0 4.0938-1.3755 7.5779-4.1255 10.453-2.7188 2.8438-6.0463 4.2658-9.9838 4.2658-3.875 0-7.2034-1.4373-9.9846-4.3123-2.75-2.875-4.1247-6.3439-4.1247-10.406 0-4.0625 1.3747-7.5314 4.1247-10.406 2.75-2.875 6.0784-4.3123 9.9846-4.3123zm136.36 0c3.9375 0 7.265 1.4374 9.9838 4.3123 2.75 2.8438 4.1255 6.3127 4.1255 10.406 0 4.0938-1.3756 7.5779-4.1255 10.453-2.7188 2.8438-6.0463 4.2658-9.9838 4.2658-3.875 0-7.2034-1.4373-9.9846-4.3123-2.75-2.875-4.1247-6.3439-4.1247-10.406 0-4.0625 1.3747-7.5314 4.1247-10.406 2.75-2.875 6.0784-4.3123 9.9846-4.3123z" fill="#fff" style="white-space:pre"/>
</svg>
